<mxfile host="Electron" modified="2023-11-07T16:06:57.788Z" agent="Mozilla/5.0 (Windows NT 10.0; Win64; x64) AppleWebKit/537.36 (KHTML, like Gecko) draw.io/22.0.2 Chrome/114.0.5735.289 Electron/25.8.4 Safari/537.36" etag="__gXKnOxjRpgolMqR9AK" version="22.0.2" type="device">
  <diagram name="Page-1" id="2YBvvXClWsGukQMizWep">
    <mxGraphModel dx="746" dy="827" grid="1" gridSize="10" guides="1" tooltips="1" connect="1" arrows="1" fold="1" page="1" pageScale="1" pageWidth="850" pageHeight="1100" math="0" shadow="0">
      <root>
        <mxCell id="0" />
        <mxCell id="1" parent="0" />
        <mxCell id="aM9ryv3xv72pqoxQDRHE-1" value="Client" style="shape=umlLifeline;perimeter=lifelinePerimeter;whiteSpace=wrap;html=1;container=0;dropTarget=0;collapsible=0;recursiveResize=0;outlineConnect=0;portConstraint=eastwest;newEdgeStyle={&quot;edgeStyle&quot;:&quot;elbowEdgeStyle&quot;,&quot;elbow&quot;:&quot;vertical&quot;,&quot;curved&quot;:0,&quot;rounded&quot;:0};size=40;" parent="1" vertex="1">
          <mxGeometry x="140" y="70" width="100" height="1010" as="geometry" />
        </mxCell>
        <mxCell id="aM9ryv3xv72pqoxQDRHE-5" value="Server" style="shape=umlLifeline;perimeter=lifelinePerimeter;whiteSpace=wrap;html=1;container=0;dropTarget=0;collapsible=0;recursiveResize=0;outlineConnect=0;portConstraint=eastwest;newEdgeStyle={&quot;edgeStyle&quot;:&quot;elbowEdgeStyle&quot;,&quot;elbow&quot;:&quot;vertical&quot;,&quot;curved&quot;:0,&quot;rounded&quot;:0};" parent="1" vertex="1">
          <mxGeometry x="470" y="70" width="100" height="1020" as="geometry" />
        </mxCell>
        <mxCell id="aM9ryv3xv72pqoxQDRHE-8" value="closes connection" style="html=1;verticalAlign=bottom;endArrow=open;dashed=1;endSize=8;edgeStyle=elbowEdgeStyle;elbow=vertical;curved=0;rounded=0;" parent="1" edge="1">
          <mxGeometry relative="1" as="geometry">
            <mxPoint x="189.5" y="570" as="targetPoint" />
            <Array as="points">
              <mxPoint x="430" y="570" />
              <mxPoint x="290" y="570" />
              <mxPoint x="435" y="590" />
            </Array>
            <mxPoint x="519.5" y="570" as="sourcePoint" />
          </mxGeometry>
        </mxCell>
        <mxCell id="aM9ryv3xv72pqoxQDRHE-9" value="OK" style="html=1;verticalAlign=bottom;endArrow=block;edgeStyle=elbowEdgeStyle;elbow=vertical;curved=0;rounded=0;" parent="1" edge="1">
          <mxGeometry relative="1" as="geometry">
            <mxPoint x="520" y="180" as="sourcePoint" />
            <Array as="points">
              <mxPoint x="400.5" y="180" />
              <mxPoint x="510.5" y="170" />
              <mxPoint x="435.5" y="190" />
            </Array>
            <mxPoint x="190" y="180" as="targetPoint" />
          </mxGeometry>
        </mxCell>
        <mxCell id="aM9ryv3xv72pqoxQDRHE-10" value="Establish Connection" style="html=1;verticalAlign=bottom;endArrow=open;dashed=1;endSize=8;edgeStyle=elbowEdgeStyle;elbow=vertical;curved=0;rounded=0;" parent="1" target="aM9ryv3xv72pqoxQDRHE-5" edge="1">
          <mxGeometry relative="1" as="geometry">
            <mxPoint x="653" y="150" as="targetPoint" />
            <Array as="points">
              <mxPoint x="423" y="150" />
            </Array>
            <mxPoint x="190" y="150" as="sourcePoint" />
          </mxGeometry>
        </mxCell>
        <mxCell id="BOh_mql1GRL_UEs2x-eg-1" value="&lt;h2&gt;Mastermind Protocol Sequence Diagram&lt;/h2&gt;" style="text;html=1;strokeColor=none;fillColor=none;align=center;verticalAlign=middle;whiteSpace=wrap;rounded=0;" vertex="1" parent="1">
          <mxGeometry x="180" y="10" width="350" height="30" as="geometry" />
        </mxCell>
        <mxCell id="BOh_mql1GRL_UEs2x-eg-5" value="START" style="html=1;verticalAlign=bottom;endArrow=open;endSize=8;edgeStyle=elbowEdgeStyle;elbow=vertical;curved=0;rounded=0;exitX=0.5;exitY=0.19;exitDx=0;exitDy=0;exitPerimeter=0;" edge="1" parent="1" target="aM9ryv3xv72pqoxQDRHE-5">
          <mxGeometry relative="1" as="geometry">
            <mxPoint x="660" y="220" as="targetPoint" />
            <Array as="points">
              <mxPoint x="423" y="220" />
            </Array>
            <mxPoint x="190" y="220" as="sourcePoint" />
          </mxGeometry>
        </mxCell>
        <mxCell id="BOh_mql1GRL_UEs2x-eg-9" value="TRY&amp;nbsp; rbgy" style="html=1;verticalAlign=bottom;endArrow=open;endSize=8;edgeStyle=elbowEdgeStyle;elbow=vertical;curved=0;rounded=0;exitX=0.5;exitY=0.19;exitDx=0;exitDy=0;exitPerimeter=0;" edge="1" parent="1" target="aM9ryv3xv72pqoxQDRHE-5">
          <mxGeometry relative="1" as="geometry">
            <mxPoint x="660" y="310" as="targetPoint" />
            <Array as="points">
              <mxPoint x="423" y="310" />
            </Array>
            <mxPoint x="190" y="310" as="sourcePoint" />
          </mxGeometry>
        </mxCell>
        <mxCell id="BOh_mql1GRL_UEs2x-eg-10" value="ANSER cocn" style="html=1;verticalAlign=bottom;endArrow=block;edgeStyle=elbowEdgeStyle;elbow=vertical;curved=0;rounded=0;" edge="1" parent="1" source="aM9ryv3xv72pqoxQDRHE-5">
          <mxGeometry relative="1" as="geometry">
            <mxPoint x="660" y="360" as="sourcePoint" />
            <Array as="points">
              <mxPoint x="230" y="340" />
              <mxPoint x="400" y="350" />
              <mxPoint x="510" y="340" />
              <mxPoint x="435" y="360" />
            </Array>
            <mxPoint x="190" y="340" as="targetPoint" />
          </mxGeometry>
        </mxCell>
        <mxCell id="BOh_mql1GRL_UEs2x-eg-11" value="TRY&amp;nbsp; rrgb" style="html=1;verticalAlign=bottom;endArrow=open;endSize=8;edgeStyle=elbowEdgeStyle;elbow=vertical;curved=0;rounded=0;exitX=0.5;exitY=0.19;exitDx=0;exitDy=0;exitPerimeter=0;" edge="1" parent="1" target="aM9ryv3xv72pqoxQDRHE-5">
          <mxGeometry relative="1" as="geometry">
            <mxPoint x="660" y="390" as="targetPoint" />
            <Array as="points">
              <mxPoint x="320" y="450" />
              <mxPoint x="423" y="390" />
            </Array>
            <mxPoint x="190" y="390" as="sourcePoint" />
          </mxGeometry>
        </mxCell>
        <mxCell id="BOh_mql1GRL_UEs2x-eg-14" value="FINISHED won" style="html=1;verticalAlign=bottom;endArrow=block;edgeStyle=elbowEdgeStyle;elbow=vertical;curved=0;rounded=0;" edge="1" parent="1">
          <mxGeometry x="0.2109" y="-10" relative="1" as="geometry">
            <mxPoint x="519.5" y="490" as="sourcePoint" />
            <Array as="points">
              <mxPoint x="400" y="490" />
              <mxPoint x="510" y="480" />
              <mxPoint x="435" y="500" />
            </Array>
            <mxPoint x="190" y="490" as="targetPoint" />
            <mxPoint as="offset" />
          </mxGeometry>
        </mxCell>
        <mxCell id="BOh_mql1GRL_UEs2x-eg-15" value="QUIT" style="html=1;verticalAlign=bottom;endArrow=open;endSize=8;edgeStyle=elbowEdgeStyle;elbow=vertical;curved=0;rounded=0;exitX=0.5;exitY=0.19;exitDx=0;exitDy=0;exitPerimeter=0;" edge="1" parent="1">
          <mxGeometry relative="1" as="geometry">
            <mxPoint x="519.5" y="540" as="targetPoint" />
            <Array as="points">
              <mxPoint x="423" y="540" />
            </Array>
            <mxPoint x="190" y="540" as="sourcePoint" />
          </mxGeometry>
        </mxCell>
        <mxCell id="BOh_mql1GRL_UEs2x-eg-16" value="GAME STARTED" style="html=1;verticalAlign=bottom;endArrow=block;edgeStyle=elbowEdgeStyle;elbow=vertical;curved=0;rounded=0;" edge="1" parent="1" source="aM9ryv3xv72pqoxQDRHE-5" target="aM9ryv3xv72pqoxQDRHE-1">
          <mxGeometry relative="1" as="geometry">
            <mxPoint x="500" y="270" as="sourcePoint" />
            <Array as="points">
              <mxPoint x="400" y="270" />
              <mxPoint x="510" y="260" />
              <mxPoint x="435" y="280" />
            </Array>
            <mxPoint x="200" y="270" as="targetPoint" />
          </mxGeometry>
        </mxCell>
        <mxCell id="BOh_mql1GRL_UEs2x-eg-17" value="Establish Connection" style="html=1;verticalAlign=bottom;endArrow=open;dashed=1;endSize=8;edgeStyle=elbowEdgeStyle;elbow=vertical;curved=0;rounded=0;" edge="1" parent="1">
          <mxGeometry relative="1" as="geometry">
            <mxPoint x="520.5" y="620" as="targetPoint" />
            <Array as="points">
              <mxPoint x="423.5" y="620" />
            </Array>
            <mxPoint x="190.5" y="620" as="sourcePoint" />
          </mxGeometry>
        </mxCell>
        <mxCell id="BOh_mql1GRL_UEs2x-eg-18" value="OK" style="html=1;verticalAlign=bottom;endArrow=block;edgeStyle=elbowEdgeStyle;elbow=vertical;curved=0;rounded=0;" edge="1" parent="1">
          <mxGeometry relative="1" as="geometry">
            <mxPoint x="520" y="650" as="sourcePoint" />
            <Array as="points">
              <mxPoint x="400.5" y="650" />
              <mxPoint x="510.5" y="640" />
              <mxPoint x="435.5" y="660" />
            </Array>
            <mxPoint x="190" y="650" as="targetPoint" />
          </mxGeometry>
        </mxCell>
        <mxCell id="BOh_mql1GRL_UEs2x-eg-19" value="HELP" style="html=1;verticalAlign=bottom;endArrow=open;endSize=8;edgeStyle=elbowEdgeStyle;elbow=vertical;curved=0;rounded=0;exitX=0.5;exitY=0.19;exitDx=0;exitDy=0;exitPerimeter=0;" edge="1" parent="1">
          <mxGeometry relative="1" as="geometry">
            <mxPoint x="520" y="690" as="targetPoint" />
            <Array as="points">
              <mxPoint x="423" y="690" />
            </Array>
            <mxPoint x="190" y="690" as="sourcePoint" />
          </mxGeometry>
        </mxCell>
        <mxCell id="BOh_mql1GRL_UEs2x-eg-20" value="COMMANDS" style="html=1;verticalAlign=bottom;endArrow=block;edgeStyle=elbowEdgeStyle;elbow=vertical;curved=0;rounded=0;" edge="1" parent="1">
          <mxGeometry relative="1" as="geometry">
            <mxPoint x="520" y="720" as="sourcePoint" />
            <Array as="points">
              <mxPoint x="400.5" y="720" />
              <mxPoint x="510.5" y="710" />
              <mxPoint x="435.5" y="730" />
            </Array>
            <mxPoint x="190" y="720" as="targetPoint" />
          </mxGeometry>
        </mxCell>
        <mxCell id="BOh_mql1GRL_UEs2x-eg-21" value="RULES" style="html=1;verticalAlign=bottom;endArrow=open;endSize=8;edgeStyle=elbowEdgeStyle;elbow=vertical;curved=0;rounded=0;exitX=0.5;exitY=0.19;exitDx=0;exitDy=0;exitPerimeter=0;" edge="1" parent="1">
          <mxGeometry relative="1" as="geometry">
            <mxPoint x="520" y="760" as="targetPoint" />
            <Array as="points">
              <mxPoint x="423" y="760" />
            </Array>
            <mxPoint x="190" y="760" as="sourcePoint" />
          </mxGeometry>
        </mxCell>
        <mxCell id="BOh_mql1GRL_UEs2x-eg-23" value="SEND RULES" style="html=1;verticalAlign=bottom;endArrow=block;edgeStyle=elbowEdgeStyle;elbow=vertical;curved=0;rounded=0;" edge="1" parent="1">
          <mxGeometry x="-0.0303" relative="1" as="geometry">
            <mxPoint x="520" y="800" as="sourcePoint" />
            <Array as="points">
              <mxPoint x="400.5" y="800" />
              <mxPoint x="510.5" y="790" />
              <mxPoint x="435.5" y="810" />
            </Array>
            <mxPoint x="190" y="800" as="targetPoint" />
            <mxPoint as="offset" />
          </mxGeometry>
        </mxCell>
        <mxCell id="BOh_mql1GRL_UEs2x-eg-24" value="TRY rbgy" style="html=1;verticalAlign=bottom;endArrow=open;endSize=8;edgeStyle=elbowEdgeStyle;elbow=vertical;curved=0;rounded=0;exitX=0.5;exitY=0.19;exitDx=0;exitDy=0;exitPerimeter=0;" edge="1" parent="1">
          <mxGeometry relative="1" as="geometry">
            <mxPoint x="520" y="840" as="targetPoint" />
            <Array as="points">
              <mxPoint x="423" y="840" />
            </Array>
            <mxPoint x="190" y="840" as="sourcePoint" />
          </mxGeometry>
        </mxCell>
        <mxCell id="BOh_mql1GRL_UEs2x-eg-26" value="ERROR 418" style="html=1;verticalAlign=bottom;endArrow=block;edgeStyle=elbowEdgeStyle;elbow=vertical;curved=0;rounded=0;" edge="1" parent="1">
          <mxGeometry relative="1" as="geometry">
            <mxPoint x="520" y="420" as="sourcePoint" />
            <Array as="points">
              <mxPoint x="400.5" y="420" />
              <mxPoint x="510.5" y="410" />
              <mxPoint x="435.5" y="430" />
            </Array>
            <mxPoint x="190" y="420" as="targetPoint" />
          </mxGeometry>
        </mxCell>
        <mxCell id="BOh_mql1GRL_UEs2x-eg-27" value="RESTART 1234" style="html=1;verticalAlign=bottom;endArrow=open;endSize=8;edgeStyle=elbowEdgeStyle;elbow=vertical;curved=0;rounded=0;exitX=0.5;exitY=0.19;exitDx=0;exitDy=0;exitPerimeter=0;" edge="1" parent="1">
          <mxGeometry relative="1" as="geometry">
            <mxPoint x="520" y="920" as="targetPoint" />
            <Array as="points">
              <mxPoint x="423" y="920" />
            </Array>
            <mxPoint x="190" y="920" as="sourcePoint" />
          </mxGeometry>
        </mxCell>
        <mxCell id="BOh_mql1GRL_UEs2x-eg-28" value="TRY&amp;nbsp; uuuuuu" style="html=1;verticalAlign=bottom;endArrow=open;endSize=8;edgeStyle=elbowEdgeStyle;elbow=vertical;curved=0;rounded=0;" edge="1" parent="1">
          <mxGeometry relative="1" as="geometry">
            <mxPoint x="520" y="380" as="targetPoint" />
            <Array as="points">
              <mxPoint x="320" y="380" />
              <mxPoint x="423" y="320" />
            </Array>
            <mxPoint x="190" y="380" as="sourcePoint" />
          </mxGeometry>
        </mxCell>
        <mxCell id="BOh_mql1GRL_UEs2x-eg-29" value="ERROR 403" style="html=1;verticalAlign=bottom;endArrow=block;edgeStyle=elbowEdgeStyle;elbow=vertical;curved=0;rounded=0;" edge="1" parent="1">
          <mxGeometry relative="1" as="geometry">
            <mxPoint x="520" y="880" as="sourcePoint" />
            <Array as="points">
              <mxPoint x="400.5" y="880" />
              <mxPoint x="510.5" y="870" />
              <mxPoint x="435.5" y="890" />
            </Array>
            <mxPoint x="190" y="880" as="targetPoint" />
          </mxGeometry>
        </mxCell>
        <mxCell id="BOh_mql1GRL_UEs2x-eg-30" value="closes connection" style="html=1;verticalAlign=bottom;endArrow=open;dashed=1;endSize=8;edgeStyle=elbowEdgeStyle;elbow=vertical;curved=0;rounded=0;" edge="1" parent="1" source="aM9ryv3xv72pqoxQDRHE-5" target="aM9ryv3xv72pqoxQDRHE-1">
          <mxGeometry relative="1" as="geometry">
            <mxPoint x="195" y="970" as="targetPoint" />
            <Array as="points">
              <mxPoint x="290" y="990" />
              <mxPoint x="426" y="970" />
              <mxPoint x="285.5" y="980" />
              <mxPoint x="430.5" y="1000" />
            </Array>
            <mxPoint x="515" y="980" as="sourcePoint" />
          </mxGeometry>
        </mxCell>
        <mxCell id="BOh_mql1GRL_UEs2x-eg-31" value="ERROR 400" style="html=1;verticalAlign=bottom;endArrow=block;edgeStyle=elbowEdgeStyle;elbow=vertical;curved=0;rounded=0;" edge="1" parent="1">
          <mxGeometry relative="1" as="geometry">
            <mxPoint x="520" y="950" as="sourcePoint" />
            <Array as="points">
              <mxPoint x="400.5" y="950" />
              <mxPoint x="510.5" y="940" />
              <mxPoint x="435.5" y="960" />
            </Array>
            <mxPoint x="190" y="950" as="targetPoint" />
          </mxGeometry>
        </mxCell>
      </root>
    </mxGraphModel>
  </diagram>
</mxfile>
